<mxfile host="app.diagrams.net" modified="2023-06-02T20:16:41.984Z" agent="Mozilla/5.0 (Windows NT 10.0; Win64; x64; rv:109.0) Gecko/20100101 Firefox/114.0" etag="ZVV0ujVICG0RD9YJH-AV" version="21.3.7" type="github">
  <diagram id="C5RBs43oDa-KdzZeNtuy" name="Page-1">
    <mxGraphModel dx="2074" dy="1134" grid="1" gridSize="10" guides="1" tooltips="1" connect="1" arrows="1" fold="1" page="1" pageScale="1" pageWidth="10000" pageHeight="10000" math="0" shadow="0">
      <root>
        <mxCell id="WIyWlLk6GJQsqaUBKTNV-0" />
        <mxCell id="WIyWlLk6GJQsqaUBKTNV-1" parent="WIyWlLk6GJQsqaUBKTNV-0" />
        <mxCell id="jAPLUlPSK57keKP8yap--20" value="Free Server" style="swimlane;whiteSpace=wrap;html=1;container=1;startSize=20;movable=1;resizable=1;rotatable=1;deletable=1;editable=1;locked=0;connectable=1;" vertex="1" parent="WIyWlLk6GJQsqaUBKTNV-1">
          <mxGeometry x="20" y="10" width="330" height="840" as="geometry">
            <mxRectangle x="20" y="10" width="110" height="30" as="alternateBounds" />
          </mxGeometry>
        </mxCell>
        <mxCell id="jAPLUlPSK57keKP8yap--3" value="Discord Command" style="rounded=1;whiteSpace=wrap;html=1;" vertex="1" parent="jAPLUlPSK57keKP8yap--20">
          <mxGeometry x="10" y="240" width="120" height="60" as="geometry" />
        </mxCell>
        <mxCell id="jAPLUlPSK57keKP8yap--4" value="Validate" style="whiteSpace=wrap;html=1;rounded=1;" vertex="1" parent="jAPLUlPSK57keKP8yap--20">
          <mxGeometry x="10" y="340" width="120" height="60" as="geometry" />
        </mxCell>
        <mxCell id="jAPLUlPSK57keKP8yap--5" value="" style="edgeStyle=orthogonalEdgeStyle;rounded=0;orthogonalLoop=1;jettySize=auto;html=1;" edge="1" parent="jAPLUlPSK57keKP8yap--20" source="jAPLUlPSK57keKP8yap--3" target="jAPLUlPSK57keKP8yap--4">
          <mxGeometry relative="1" as="geometry" />
        </mxCell>
        <mxCell id="jAPLUlPSK57keKP8yap--7" value="" style="edgeStyle=orthogonalEdgeStyle;rounded=0;orthogonalLoop=1;jettySize=auto;html=1;" edge="1" parent="jAPLUlPSK57keKP8yap--20" source="jAPLUlPSK57keKP8yap--4" target="jAPLUlPSK57keKP8yap--6">
          <mxGeometry relative="1" as="geometry" />
        </mxCell>
        <mxCell id="jAPLUlPSK57keKP8yap--42" value="" style="edgeStyle=orthogonalEdgeStyle;rounded=0;orthogonalLoop=1;jettySize=auto;html=1;" edge="1" parent="jAPLUlPSK57keKP8yap--20" source="jAPLUlPSK57keKP8yap--8" target="jAPLUlPSK57keKP8yap--41">
          <mxGeometry relative="1" as="geometry" />
        </mxCell>
        <mxCell id="jAPLUlPSK57keKP8yap--8" value="Send update message" style="whiteSpace=wrap;html=1;rounded=1;" vertex="1" parent="jAPLUlPSK57keKP8yap--20">
          <mxGeometry x="10" y="430" width="120" height="60" as="geometry" />
        </mxCell>
        <mxCell id="jAPLUlPSK57keKP8yap--9" value="" style="edgeStyle=orthogonalEdgeStyle;rounded=0;orthogonalLoop=1;jettySize=auto;html=1;" edge="1" parent="jAPLUlPSK57keKP8yap--20" source="jAPLUlPSK57keKP8yap--4" target="jAPLUlPSK57keKP8yap--8">
          <mxGeometry relative="1" as="geometry" />
        </mxCell>
        <mxCell id="jAPLUlPSK57keKP8yap--12" value="&lt;div&gt;Send HTTP &lt;br&gt;&lt;/div&gt;&lt;div&gt;request&lt;/div&gt;&lt;div&gt;to Start&lt;br&gt;&lt;/div&gt;" style="whiteSpace=wrap;html=1;rounded=1;" vertex="1" parent="jAPLUlPSK57keKP8yap--20">
          <mxGeometry x="10" y="630" width="120" height="60" as="geometry" />
        </mxCell>
        <mxCell id="jAPLUlPSK57keKP8yap--11" style="edgeStyle=orthogonalEdgeStyle;rounded=0;orthogonalLoop=1;jettySize=auto;html=1;exitX=0.5;exitY=1;exitDx=0;exitDy=0;entryX=1;entryY=0.5;entryDx=0;entryDy=0;" edge="1" parent="jAPLUlPSK57keKP8yap--20" source="jAPLUlPSK57keKP8yap--6" target="jAPLUlPSK57keKP8yap--8">
          <mxGeometry relative="1" as="geometry" />
        </mxCell>
        <mxCell id="jAPLUlPSK57keKP8yap--6" value="Start G cloud Server" style="whiteSpace=wrap;html=1;rounded=1;" vertex="1" parent="jAPLUlPSK57keKP8yap--20">
          <mxGeometry x="190" y="340" width="120" height="60" as="geometry" />
        </mxCell>
        <mxCell id="jAPLUlPSK57keKP8yap--1" value="Server Start" style="rhombus;whiteSpace=wrap;html=1;" vertex="1" parent="jAPLUlPSK57keKP8yap--20">
          <mxGeometry x="30" y="30" width="80" height="80" as="geometry" />
        </mxCell>
        <mxCell id="jAPLUlPSK57keKP8yap--2" value="" style="endArrow=classic;html=1;rounded=0;exitX=0.5;exitY=1;exitDx=0;exitDy=0;" edge="1" parent="jAPLUlPSK57keKP8yap--20" source="jAPLUlPSK57keKP8yap--1" target="jAPLUlPSK57keKP8yap--3">
          <mxGeometry width="50" height="50" relative="1" as="geometry">
            <mxPoint x="380" y="480" as="sourcePoint" />
            <mxPoint x="70" y="230" as="targetPoint" />
          </mxGeometry>
        </mxCell>
        <mxCell id="jAPLUlPSK57keKP8yap--43" style="edgeStyle=orthogonalEdgeStyle;rounded=0;orthogonalLoop=1;jettySize=auto;html=1;entryX=0.5;entryY=0;entryDx=0;entryDy=0;" edge="1" parent="jAPLUlPSK57keKP8yap--20" source="jAPLUlPSK57keKP8yap--41" target="jAPLUlPSK57keKP8yap--12">
          <mxGeometry relative="1" as="geometry" />
        </mxCell>
        <mxCell id="jAPLUlPSK57keKP8yap--41" value="Await ping" style="whiteSpace=wrap;html=1;rounded=1;" vertex="1" parent="jAPLUlPSK57keKP8yap--20">
          <mxGeometry x="10" y="530" width="120" height="60" as="geometry" />
        </mxCell>
        <mxCell id="jAPLUlPSK57keKP8yap--21" value="Cloud Server" style="swimlane;whiteSpace=wrap;html=1;" vertex="1" parent="WIyWlLk6GJQsqaUBKTNV-1">
          <mxGeometry x="374" y="10" width="426" height="720" as="geometry">
            <mxRectangle x="374" y="10" width="110" height="30" as="alternateBounds" />
          </mxGeometry>
        </mxCell>
        <mxCell id="jAPLUlPSK57keKP8yap--18" value="" style="whiteSpace=wrap;html=1;rounded=1;" vertex="1" parent="jAPLUlPSK57keKP8yap--21">
          <mxGeometry x="26" y="630" width="120" height="60" as="geometry" />
        </mxCell>
        <mxCell id="jAPLUlPSK57keKP8yap--40" value="" style="edgeStyle=orthogonalEdgeStyle;rounded=0;orthogonalLoop=1;jettySize=auto;html=1;" edge="1" parent="jAPLUlPSK57keKP8yap--21" source="jAPLUlPSK57keKP8yap--36" target="jAPLUlPSK57keKP8yap--39">
          <mxGeometry relative="1" as="geometry" />
        </mxCell>
        <mxCell id="jAPLUlPSK57keKP8yap--36" value="Boot" style="rhombus;whiteSpace=wrap;html=1;" vertex="1" parent="jAPLUlPSK57keKP8yap--21">
          <mxGeometry x="49" y="40" width="74" height="80" as="geometry" />
        </mxCell>
        <mxCell id="jAPLUlPSK57keKP8yap--39" value="&lt;div&gt;Start Docker Container with&lt;/div&gt;&lt;div&gt;&amp;nbsp;socket&lt;/div&gt;" style="whiteSpace=wrap;html=1;" vertex="1" parent="jAPLUlPSK57keKP8yap--21">
          <mxGeometry x="26" y="160" width="120" height="60" as="geometry" />
        </mxCell>
        <mxCell id="jAPLUlPSK57keKP8yap--22" value="Required Functions" style="swimlane;fontStyle=0;childLayout=stackLayout;horizontal=1;startSize=30;horizontalStack=0;resizeParent=1;resizeParentMax=0;resizeLast=0;collapsible=1;marginBottom=0;whiteSpace=wrap;html=1;movable=1;resizable=1;rotatable=1;deletable=1;editable=1;locked=0;connectable=1;" vertex="1" parent="WIyWlLk6GJQsqaUBKTNV-1">
          <mxGeometry x="1340" y="10" width="140" height="230" as="geometry">
            <mxRectangle x="1130" y="40" width="150" height="30" as="alternateBounds" />
          </mxGeometry>
        </mxCell>
        <mxCell id="jAPLUlPSK57keKP8yap--23" value="&lt;div&gt;Start&lt;/div&gt;" style="text;strokeColor=none;fillColor=none;align=left;verticalAlign=middle;spacingLeft=4;spacingRight=4;overflow=hidden;points=[[0,0.5],[1,0.5]];portConstraint=eastwest;rotatable=0;whiteSpace=wrap;html=1;" vertex="1" parent="jAPLUlPSK57keKP8yap--22">
          <mxGeometry y="30" width="140" height="20" as="geometry" />
        </mxCell>
        <mxCell id="jAPLUlPSK57keKP8yap--24" value="Stop" style="text;strokeColor=none;fillColor=none;align=left;verticalAlign=middle;spacingLeft=4;spacingRight=4;overflow=hidden;points=[[0,0.5],[1,0.5]];portConstraint=eastwest;rotatable=0;whiteSpace=wrap;html=1;" vertex="1" parent="jAPLUlPSK57keKP8yap--22">
          <mxGeometry y="50" width="140" height="30" as="geometry" />
        </mxCell>
        <mxCell id="jAPLUlPSK57keKP8yap--25" value="&lt;div&gt;Force Stop&lt;/div&gt;&lt;div&gt;Console&lt;/div&gt;&lt;div&gt;Logs&lt;br&gt;&lt;/div&gt;&lt;div&gt;Create Server&lt;br&gt;&lt;/div&gt;&lt;div&gt;Edit files&lt;/div&gt;&lt;div&gt;restart&lt;br&gt;&lt;/div&gt;&lt;div&gt;IAM&lt;/div&gt;&lt;div&gt;Upgrade Server&lt;/div&gt;&lt;div&gt;Backup&lt;/div&gt;&lt;div&gt;Restore&lt;br&gt;&lt;/div&gt;&lt;div&gt;&lt;br&gt;&lt;/div&gt;" style="text;strokeColor=none;fillColor=none;align=left;verticalAlign=middle;spacingLeft=4;spacingRight=4;overflow=hidden;points=[[0,0.5],[1,0.5]];portConstraint=eastwest;rotatable=0;whiteSpace=wrap;html=1;" vertex="1" parent="jAPLUlPSK57keKP8yap--22">
          <mxGeometry y="80" width="140" height="150" as="geometry" />
        </mxCell>
        <mxCell id="jAPLUlPSK57keKP8yap--19" value="" style="edgeStyle=orthogonalEdgeStyle;rounded=0;orthogonalLoop=1;jettySize=auto;html=1;" edge="1" parent="WIyWlLk6GJQsqaUBKTNV-1" source="jAPLUlPSK57keKP8yap--12" target="jAPLUlPSK57keKP8yap--18">
          <mxGeometry relative="1" as="geometry" />
        </mxCell>
        <mxCell id="jAPLUlPSK57keKP8yap--38" style="edgeStyle=orthogonalEdgeStyle;rounded=0;orthogonalLoop=1;jettySize=auto;html=1;entryX=0;entryY=0.5;entryDx=0;entryDy=0;" edge="1" parent="WIyWlLk6GJQsqaUBKTNV-1" source="jAPLUlPSK57keKP8yap--6" target="jAPLUlPSK57keKP8yap--36">
          <mxGeometry relative="1" as="geometry">
            <Array as="points">
              <mxPoint x="270" y="90" />
            </Array>
          </mxGeometry>
        </mxCell>
      </root>
    </mxGraphModel>
  </diagram>
</mxfile>
